<svg width="24" height="21" viewBox="0 0 24 21" fill="none" xmlns="http://www.w3.org/2000/svg">
<path d="M11.5475 14.4403C11.5475 11.1491 14.6123 8.35844 18.5125 8.35844C19.4178 8.35844 20.3232 8.5731 21.1597 8.8601C21.1597 4.13744 16.493 0.273438 10.851 0.273438C5.07016 0.273438 0.333496 4.27977 0.333496 9.0736C0.333496 12.1501 2.28416 15.0119 5.21016 16.4434V19.6634C5.21016 20.0216 5.48783 20.2351 5.9055 20.0216L10.0845 17.8749H11.1298C11.6175 17.8749 12.1052 17.8749 12.5228 17.7314C11.8263 16.7293 11.5475 15.5848 11.5475 14.4403ZM18.5125 10.1469C15.5877 10.1469 13.2193 12.0078 13.2193 14.4403C13.2193 16.8728 15.5877 18.8759 18.4425 18.8759H18.7913L19.4878 19.1629L20.602 19.8781C20.9508 19.8781 21.2985 19.8781 21.2985 19.4488V18.1608C22.6915 17.4456 23.6668 16.0141 23.6668 14.4403C23.6668 12.0078 21.3685 10.1469 18.4425 10.1469H18.5125Z" fill="#7C8591"/>
</svg>
