<svg width="22" height="22" viewBox="0 0 22 22" fill="none" xmlns="http://www.w3.org/2000/svg">
<path d="M21.5625 4.9165V6.479H0.4375V4.9165C0.4375 4.5021 0.608705 4.10468 0.913451 3.81165C1.2182 3.51862 1.63152 3.354 2.0625 3.354H4.5V1.01025C4.5 0.803053 4.5856 0.604339 4.73798 0.457827C4.89035 0.311314 5.09701 0.229004 5.3125 0.229004C5.52799 0.229004 5.73465 0.311314 5.88702 0.457827C6.0394 0.604339 6.125 0.803053 6.125 1.01025V3.354H15.875V1.01025C15.875 0.803053 15.9606 0.604339 16.113 0.457827C16.2653 0.311314 16.472 0.229004 16.6875 0.229004C16.903 0.229004 17.1097 0.311314 17.262 0.457827C17.4144 0.604339 17.5 0.803053 17.5 1.01025V3.354H19.9375C20.3685 3.354 20.7818 3.51862 21.0865 3.81165C21.3913 4.10468 21.5625 4.5021 21.5625 4.9165ZM0.4375 8.0415H21.5625V19.7603C21.5625 20.1747 21.3913 20.5721 21.0865 20.8651C20.7818 21.1581 20.3685 21.3228 19.9375 21.3228H2.0625C1.63152 21.3228 1.2182 21.1581 0.913451 20.8651C0.608705 20.5721 0.4375 20.1747 0.4375 19.7603V8.0415ZM6.40938 13.6274L8.03438 15.1274C8.1112 15.1959 8.16866 15.282 8.20135 15.3776C8.23404 15.4733 8.24089 15.5754 8.22125 15.6743L7.8475 17.7993C7.82768 17.914 7.84152 18.0317 7.88744 18.1392C7.93337 18.2467 8.00957 18.3398 8.10748 18.408C8.20539 18.4762 8.32113 18.5167 8.4417 18.5251C8.56227 18.5335 8.68289 18.5094 8.79 18.4556L10.7644 17.4556C10.8588 17.4096 10.9632 17.3856 11.0691 17.3856C11.1749 17.3856 11.2793 17.4096 11.3737 17.4556L13.3481 18.4556C13.4537 18.4994 13.5695 18.5155 13.6836 18.5022C13.7978 18.489 13.9062 18.4468 13.9979 18.3801C14.0896 18.3134 14.1612 18.2245 14.2055 18.1224C14.2498 18.0204 14.2652 17.9089 14.25 17.7993L13.8763 15.6743C13.8566 15.5754 13.8635 15.4733 13.8962 15.3776C13.9288 15.282 13.9863 15.1959 14.0631 15.1274L15.6881 13.6274C15.7732 13.5452 15.8332 13.442 15.8614 13.3291C15.8896 13.2163 15.885 13.0982 15.8481 12.9877C15.8112 12.8772 15.7434 12.7786 15.6521 12.7026C15.5609 12.6267 15.4496 12.5764 15.3306 12.5571L13.1125 12.2524C13.0122 12.2415 12.916 12.2083 12.8313 12.1554C12.7467 12.1025 12.6761 12.0314 12.625 11.9478L11.6338 10.0181C11.5797 9.91447 11.4967 9.82738 11.3941 9.76651C11.2915 9.70565 11.1734 9.67342 11.0528 9.67342C10.9323 9.67342 10.8141 9.70565 10.7115 9.76651C10.6089 9.82738 10.5259 9.91447 10.4719 10.0181L9.4725 11.9478C9.42628 12.0387 9.35776 12.1176 9.27284 12.1774C9.18792 12.2373 9.08914 12.2765 8.985 12.2915L6.775 12.5962C6.66302 12.6186 6.55905 12.6687 6.47334 12.7415C6.38763 12.8144 6.32314 12.9074 6.28623 13.0115C6.24932 13.1156 6.24127 13.2272 6.26286 13.3352C6.28446 13.4432 6.33495 13.5439 6.40938 13.6274Z" fill="#7C8591"/>
</svg>
