<svg width="22" height="22" viewBox="0 0 22 22" fill="none" xmlns="http://www.w3.org/2000/svg">
<path fill-rule="evenodd" clip-rule="evenodd" d="M18.7711 6.94642L13.8339 2.86428C12.1708 1.48925 9.82656 1.48925 8.16348 2.86428L3.22625 6.94642C2.33674 7.68188 1.83203 8.79697 1.83203 9.96045V16.3263C1.83203 18.3935 3.42167 20.1663 5.4987 20.1663H7.33203C8.34455 20.1663 9.16536 19.3456 9.16536 18.333V15.3518C9.16536 14.19 10.0381 13.3452 10.9987 13.3452C11.9593 13.3452 12.832 14.19 12.832 15.3518V18.333C12.832 19.3456 13.6528 20.1663 14.6654 20.1663H16.4987C18.5758 20.1663 20.1654 18.3935 20.1654 16.3263V9.96045C20.1654 8.79698 19.6606 7.68188 18.7711 6.94642Z" fill="white"/>
</svg>
