<svg width="23" height="23" viewBox="0 0 23 23" fill="none" xmlns="http://www.w3.org/2000/svg">
<path fill-rule="evenodd" clip-rule="evenodd" d="M7.72373 10.773C8.96773 8.32497 11.8037 7.76197 13.6177 8.63997C15.5877 9.59197 16.4407 12.3 15.6267 15.501C15.0767 17.664 13.0107 20.288 11.1567 22.138C10.9677 22.327 10.6917 22.401 10.4337 22.332C7.90273 21.657 4.80173 20.417 3.24373 18.819C0.938728 16.453 0.322728 13.683 1.55273 11.873C2.68473 10.205 5.42273 9.27497 7.72373 10.773Z" fill="#7C8591"/>
<path fill-rule="evenodd" clip-rule="evenodd" d="M5.8299 4.77166C6.0149 5.14166 5.8649 5.59266 5.4939 5.77766C5.1239 5.96266 4.6729 5.81266 4.4879 5.44166L3.9879 4.44166C3.8029 4.07166 3.9529 3.62066 4.3239 3.43566C4.6939 3.25066 5.1449 3.40066 5.3299 3.77166L5.8299 4.77166Z" fill="#7C8591"/>
<path fill-rule="evenodd" clip-rule="evenodd" d="M16.9879 18.4417C16.8029 18.0717 16.9529 17.6207 17.3239 17.4357C17.6939 17.2507 18.1449 17.4007 18.3299 17.7717L18.8299 18.7717C19.0149 19.1417 18.8649 19.5927 18.4939 19.7777C18.1239 19.9627 17.6729 19.8127 17.4879 19.4417L16.9879 18.4417Z" fill="#7C8591"/>
<path fill-rule="evenodd" clip-rule="evenodd" d="M3.4939 9.27765C3.1239 9.46265 2.6729 9.31266 2.4879 8.94166C2.3029 8.57166 2.4529 8.12066 2.8239 7.93566L3.8239 7.43566C4.1939 7.25066 4.6449 7.40066 4.8299 7.77166C5.0149 8.14166 4.8649 8.59265 4.4939 8.77765L3.4939 9.27765Z" fill="#7C8591"/>
<path fill-rule="evenodd" clip-rule="evenodd" d="M19.3239 13.9357C19.6939 13.7507 20.1449 13.9007 20.3299 14.2717C20.5149 14.6417 20.3649 15.0927 19.9939 15.2777L18.9939 15.7777C18.6239 15.9627 18.1729 15.8127 17.9879 15.4417C17.8029 15.0717 17.9529 14.6207 18.3239 14.4357L19.3239 13.9357Z" fill="#7C8591"/>
<path fill-rule="evenodd" clip-rule="evenodd" d="M7.92328 8.82978C7.83328 8.58578 7.75828 8.34578 7.69928 8.11078C6.88628 4.90978 7.73828 2.20378 9.70828 1.25078C11.5223 0.372782 14.3583 0.935782 15.6023 3.38478C17.9033 1.88578 20.6413 2.81678 21.7733 4.48378C23.0023 6.29378 22.3853 9.06178 20.0893 11.4228C19.3203 12.2128 18.1883 12.9248 16.9233 13.5158C17.0173 10.7828 15.8923 8.62878 14.0543 7.73878C12.2673 6.87478 9.66428 7.13378 7.92328 8.82978Z" fill="#7C8591"/>
</svg>
