<svg width="22" height="22" viewBox="0 0 22 22" fill="none" xmlns="http://www.w3.org/2000/svg">
<path d="M20.8984 4.28965C20.8984 3.37839 20.1597 2.63965 19.2484 2.63965H2.74844C1.83718 2.63965 1.09844 3.37839 1.09844 4.28965C1.09844 5.20091 1.83718 5.93965 2.74844 5.93965H19.2484C20.1597 5.93965 20.8984 5.20091 20.8984 4.28965Z" fill="white"/>
<path d="M20.8984 10.8893C20.8984 9.978 20.1597 9.23926 19.2484 9.23926H9.34844C8.43718 9.23926 7.69844 9.978 7.69844 10.8893C7.69844 11.8005 8.43718 12.5393 9.34844 12.5393H19.2484C20.1597 12.5393 20.8984 11.8005 20.8984 10.8893Z" fill="white"/>
<path d="M20.8984 17.4898C20.8984 16.5786 20.1597 15.8398 19.2484 15.8398H2.74844C1.83718 15.8398 1.09844 16.5786 1.09844 17.4898C1.09844 18.4011 1.83718 19.1398 2.74844 19.1398H19.2484C20.1597 19.1398 20.8984 18.4011 20.8984 17.4898Z" fill="white"/>
</svg>
