<svg width="22" height="22" viewBox="0 0 22 22" fill="none" xmlns="http://www.w3.org/2000/svg">
<g clip-path="url(#clip0_5001_11466)">
<path d="M12.1827 6.66016C11.7524 6.66016 11.4023 7.01027 11.4023 7.4406V9.45927C11.4023 9.8896 11.7524 10.2397 12.1827 10.2397C12.6131 10.2397 12.9632 9.8896 12.9632 9.45927V7.4406C12.9632 7.01027 12.6131 6.66016 12.1827 6.66016Z" fill="white"/>
<path d="M21.8064 7.16495L18.0896 3.52589C17.2241 2.67846 16.0803 2.21177 14.869 2.21177H14.5508C14.5176 2.18453 14.4811 2.16021 14.4416 2.13941L13.4684 1.6271C13.1534 1.46119 12.7637 1.58224 12.5978 1.8972C12.545 1.9977 12.5215 2.10577 12.524 2.21181H9.476C9.47845 2.10581 9.45503 1.9977 9.40213 1.8972C9.23632 1.58219 8.84646 1.46124 8.53154 1.6271L7.55835 2.13941C7.51886 2.16021 7.48242 2.18453 7.4492 2.21177H7.13093C5.91965 2.21177 4.77586 2.67846 3.91043 3.52589L0.193629 7.16495C-0.054301 7.40768 -0.0655588 7.80308 0.168062 8.05952L2.59842 10.7275C2.82461 10.9758 3.20355 11.0088 3.46927 10.8033L4.97824 9.63609L5.13117 19.8128C5.13645 20.1649 5.42344 20.4476 5.77561 20.4476H16.2245C16.5767 20.4476 16.8637 20.1649 16.8689 19.8128L17.0219 9.63609L18.5308 10.8033C18.7965 11.0088 19.1755 10.9759 19.4017 10.7275L21.8321 8.05952C22.0656 7.80308 22.0543 7.40768 21.8064 7.16495ZM9.03522 10.8847C9.03522 11.2406 8.74665 11.5292 8.39069 11.5292C8.03474 11.5292 7.74616 11.2406 7.74616 10.8847V6.0161C7.74616 5.66014 8.03474 5.37157 8.39069 5.37157C8.74665 5.37157 9.03522 5.66014 9.03522 6.0161V10.8847ZM14.2538 9.45974C14.2538 10.6009 13.3255 11.5292 12.1843 11.5292C11.0432 11.5292 10.1149 10.6009 10.1149 9.45974V7.44107C10.1149 6.29995 11.0432 5.37157 12.1843 5.37157C13.3255 5.37157 14.2538 6.29991 14.2538 7.44107V9.45974Z" fill="white"/>
</g>
<defs>
<clipPath id="clip0_5001_11466">
<rect width="22" height="22" fill="white"/>
</clipPath>
</defs>
</svg>
