<svg width="22" height="22" viewBox="0 0 22 22" fill="none" xmlns="http://www.w3.org/2000/svg">
<g clip-path="url(#clip0_5001_13194)">
<path d="M2.95093 20.2959C3.26662 21.2838 4.18237 22.0003 5.26054 22.0003H16.7393C17.8175 22.0003 18.7332 21.2838 19.0489 20.2959H2.95093Z" fill="white"/>
<path d="M18.4559 3.53446L15.6324 0.710902C15.5159 0.594414 15.39 0.491719 15.2559 0.402344V3.89549C15.2559 3.97498 15.3207 4.03948 15.4003 4.03948H18.844C18.7392 3.85677 18.6089 3.68748 18.4559 3.53446Z" fill="white"/>
<path d="M19.1669 5.32911H15.4005C14.6097 5.32911 13.9668 4.68617 13.9668 3.89585V0.000859375C13.95 0 13.9328 0 13.9161 0H5.26056C3.92225 0 2.83325 1.08904 2.83325 2.42773V9.04913H19.167L19.1669 5.32911Z" fill="white"/>
<path d="M11.0232 13.1865H10.4336V16.2271H11.0232C11.4206 16.2271 11.6194 16.0063 11.6194 15.5646V13.849C11.6193 13.4074 11.4206 13.1865 11.0232 13.1865Z" fill="white"/>
<path d="M7.31985 13.1875H6.66406V14.5852H7.31985C7.71731 14.5852 7.91609 14.3644 7.91609 13.9227V13.8499C7.916 13.4084 7.71727 13.1875 7.31985 13.1875Z" fill="white"/>
<path d="M19.2504 10.3379H2.74885C1.85076 10.3379 1.12012 11.0685 1.12012 11.9666V17.3769C1.12012 18.275 1.85076 19.0056 2.74885 19.0056H19.2503C20.1484 19.0056 20.8791 18.275 20.8791 17.3769V11.9666C20.8791 11.0685 20.1484 10.3379 19.2504 10.3379ZM8.9495 13.8421C8.9495 14.3677 8.80039 14.7552 8.50232 15.0047C8.20425 15.2542 7.81009 15.3789 7.31991 15.3789H6.66412V16.8098C6.66412 16.9114 6.61329 16.9898 6.51175 17.0449C6.41013 17.1002 6.2887 17.1277 6.14742 17.1277C6.00601 17.1277 5.88462 17.1002 5.78304 17.0449C5.68142 16.9898 5.63068 16.9114 5.63068 16.8098V12.5967C5.63068 12.5129 5.66595 12.44 5.73664 12.3781C5.80723 12.3163 5.89996 12.2854 6.01486 12.2854H7.38608C7.85856 12.2854 8.23733 12.408 8.52213 12.6531C8.80697 12.8982 8.94941 13.2835 8.94941 13.809V13.8421H8.9495ZM12.6523 15.5645C12.6523 16.1033 12.5043 16.4985 12.2085 16.7502C11.9126 17.0019 11.5173 17.1278 11.0228 17.1278H9.85029C9.71778 17.1278 9.60954 17.097 9.52571 17.0351C9.44179 16.9733 9.39981 16.9004 9.39981 16.8165V12.5968C9.39981 12.513 9.44175 12.4401 9.52571 12.3782C9.60954 12.3164 9.71782 12.2855 9.85029 12.2855H11.0228C11.5173 12.2855 11.9126 12.4114 12.2085 12.6631C12.5043 12.9148 12.6523 13.3101 12.6523 13.8488V15.5645ZM16.2857 13.0539C16.2304 13.1423 16.1542 13.1864 16.0572 13.1864H14.3415V14.3059H15.3417C15.4388 14.3059 15.515 14.3457 15.5703 14.4251C15.6255 14.5046 15.6531 14.5997 15.6531 14.71C15.6531 14.8116 15.6266 14.9021 15.5736 14.9816C15.5206 15.0611 15.4433 15.1008 15.3417 15.1008H14.3415V16.8098C14.3415 16.9114 14.2907 16.9898 14.1891 17.045C14.0875 17.1002 13.9661 17.1278 13.8248 17.1278C13.6834 17.1278 13.562 17.1002 13.4604 17.045C13.3588 16.9898 13.3081 16.9114 13.3081 16.8098V12.6034C13.3081 12.5019 13.3522 12.4235 13.4406 12.3682C13.5288 12.3131 13.6349 12.2854 13.7585 12.2854H16.0571C16.1586 12.2854 16.236 12.3296 16.289 12.418C16.342 12.5064 16.3685 12.6101 16.3685 12.7293C16.3684 12.8574 16.3408 12.9656 16.2857 13.0539Z" fill="white"/>
</g>
<defs>
<clipPath id="clip0_5001_13194">
<rect width="22" height="22" fill="white"/>
</clipPath>
</defs>
</svg>
