<svg width="22" height="22" viewBox="0 0 22 22" fill="none" xmlns="http://www.w3.org/2000/svg">
<path d="M1.44403 11.1105L1.78924 10.7653C2.04095 10.5136 2.04095 10.1055 1.78924 9.85382C1.53757 9.60211 1.12946 9.60211 0.877744 9.85382L0.532533 10.199C0.280822 10.4507 0.280822 10.8588 0.532533 11.1105C0.784158 11.3622 1.19228 11.3623 1.44403 11.1105Z" fill="white"/>
<path d="M1.10028 18.3595L1.44545 18.0143C1.69716 17.7626 1.69716 17.3546 1.44545 17.1028C1.19378 16.8511 0.785662 16.8511 0.533951 17.1028L0.188783 17.448C-0.0629277 17.6997 -0.0629277 18.1078 0.188783 18.3595C0.440451 18.6112 0.848568 18.6113 1.10028 18.3595Z" fill="white"/>
<path d="M11.2554 20.1881L10.9102 20.5019C10.6468 20.7413 10.6274 21.1489 10.8668 21.4123C11.196 21.7743 11.6289 21.5906 11.7773 21.4557L12.1225 21.1419C12.3859 20.9025 12.4053 20.4949 12.1659 20.2315C11.9265 19.9681 11.5188 19.9487 11.2554 20.1881Z" fill="white"/>
<path d="M13.9926 10.8923L13.75 12.4258C14.8259 12.4285 15.9026 12.0203 16.7216 11.2013C16.8819 11.041 17.0262 10.8707 17.1551 10.6926L15.7689 9.98633L13.9926 10.8923Z" fill="white"/>
<path d="M15.1317 5.95715L16.2313 4.85758C15.1271 4.04994 13.7137 3.85091 12.457 4.26032L13.163 5.6458L15.1317 5.95715Z" fill="white"/>
<path d="M13.7604 0C11.921 0 10.1963 0.425047 8.63444 1.26337C4.45659 3.50565 2.8301 7.93727 2.80028 8.01934C2.7085 8.27179 2.78313 8.55461 2.98723 8.72923C3.19134 8.90386 3.48258 8.93346 3.71779 8.8037C4.05234 8.61841 5.05562 8.15439 5.52033 8.20759C5.56304 8.92856 4.84946 9.57528 4.28975 10.1148C3.30129 11.0676 2.07114 12.2534 2.07114 14.4518C2.07114 14.8078 2.35972 15.0963 2.71567 15.0963C3.74228 15.0963 4.14223 15.4963 4.14223 16.5229C4.14223 17.6952 3.53955 18.7528 2.35087 19.6664C1.40641 20.3923 0.437253 20.7451 0.428573 20.7482C0.133034 20.8533 -0.0439111 21.156 0.00945604 21.465C0.0627803 21.7742 0.330905 22 0.644577 22C6.95312 22 9.34742 19.711 11.0957 18.0396C11.6979 17.4639 12.6864 16.412 13.7926 16.4798C13.8463 16.9449 13.3811 17.9511 13.1975 18.282C13.0674 18.5171 13.0968 18.8083 13.2714 19.0127C13.446 19.217 13.729 19.2915 13.9816 19.1998C14.065 19.1695 18.4951 17.5439 20.7368 13.3662C21.575 11.8042 22 10.0794 22 8.23956C22 3.69626 18.3037 0 13.7604 0ZM17.6335 12.1123C15.498 14.2478 12.0232 14.2478 9.88771 12.1123C7.75221 9.97683 7.75221 6.50207 9.88771 4.36657C12.0232 2.23107 15.498 2.23107 17.6335 4.36657C19.769 6.50207 19.769 9.97683 17.6335 12.1123Z" fill="white"/>
<path d="M16.043 6.86808L16.3543 8.83687L17.7398 9.5428C18.1493 8.28609 17.9502 6.87277 17.1425 5.76855L16.043 6.86808Z" fill="white"/>
<path d="M14.7919 7.20808L13.0993 6.94043L12.3203 8.46771L13.5322 9.67964L15.0595 8.90062L14.7919 7.20808Z" fill="white"/>
<path d="M9.77344 9.52305C9.97006 10.1371 10.3115 10.7144 10.7979 11.2008C11.2843 11.6872 11.8616 12.0286 12.4756 12.2253L12.7184 10.6905L11.3082 9.28027L9.77344 9.52305Z" fill="white"/>
<path d="M12.0138 6.2309L11.3075 4.84473C11.1294 4.97355 10.9591 5.11788 10.7988 5.2782C9.97973 6.09727 9.57165 7.17393 9.57423 8.24978L11.1077 8.00718L12.0138 6.2309Z" fill="white"/>
</svg>
